<?xml version="1.0" standalone="no"?>
<!DOCTYPE svg PUBLIC "-//W3C//DTD SVG 20010904//EN"
 "http://www.w3.org/TR/2001/REC-SVG-20010904/DTD/svg10.dtd">
<svg version="1.0" xmlns="http://www.w3.org/2000/svg"
 width="1280.000000pt" height="836.000000pt" viewBox="0 0 1280.000000 836.000000"
 preserveAspectRatio="xMidYMid meet">
<metadata>
Created by potrace 1.15, written by Peter Selinger 2001-2017
</metadata>
<g transform="translate(0.000000,836.000000) scale(0.100000,-0.100000)"
fill="#000000" stroke="none">
<path d="M6065 8353 c-409 -32 -727 -108 -1061 -253 -452 -196 -821 -497
-1067 -870 -154 -233 -259 -521 -285 -783 l-7 -71 -155 -22 c-269 -38 -474
-100 -705 -214 -630 -310 -1033 -863 -1096 -1503 -6 -64 -9 -155 -8 -202 l4
-85 -62 0 c-86 0 -265 -26 -379 -55 -329 -83 -606 -243 -835 -482 -196 -205
-321 -440 -381 -716 -31 -146 -31 -408 0 -553 61 -282 198 -530 412 -744 58
-58 148 -135 200 -172 249 -176 581 -300 871 -324 75 -7 82 -9 91 -33 36 -90
104 -221 143 -275 54 -76 179 -197 255 -247 231 -152 499 -201 765 -139 152
36 278 98 404 201 l64 52 21 -29 c12 -16 51 -63 87 -104 334 -380 804 -626
1348 -707 145 -22 503 -24 636 -4 115 17 261 47 350 72 344 99 697 301 919
527 l58 60 87 -64 c166 -124 358 -205 561 -239 144 -25 375 -16 511 19 366 93
653 316 822 638 26 51 44 75 51 69 23 -18 184 -83 297 -121 128 -42 298 -81
449 -101 122 -17 458 -17 580 0 751 102 1374 523 1665 1126 113 234 162 432
172 693 l6 163 86 57 c291 192 526 452 676 752 333 664 208 1438 -320 1989
-357 373 -828 600 -1374 662 -132 15 -513 6 -630 -15 l-85 -15 -70 67 c-110
104 -192 169 -311 248 -281 185 -608 306 -947 352 l-130 17 -45 88 c-293 567
-899 1011 -1632 1197 -307 78 -719 116 -1006 93z"/>
</g>
</svg>
